<svg xmlns="http://www.w3.org/2000/svg" viewBox="0 0 555.68 161.42"><defs><style>.cls-1{fill:#b3569b}.cls-2{fill:#a54391}.cls-5{fill:#bf68a5;opacity:.5}.cls-8{fill:#e44d95}.cls-10{fill:#fff}</style></defs><g id="Layer_2" data-name="Layer 2"><path class="cls-1" d="M31.27.56z" transform="translate(0 -.56)" id="Layer_1-2" data-name="Layer 1"/><g id="Layer_2-2" data-name="Layer 2"><path class="cls-1" d="M127.22 68.91h24.7v3.42a3.5 3.5 0 01-3.5 3.5h-17.7a3.5 3.5 0 01-3.5-3.5v-3.42z" transform="rotate(16.22 141.512 72.057)"/><path class="cls-2" d="M128.18 65.58h24.7v4.64a2.28 2.28 0 01-2.28 2.28h-20.14a2.28 2.28 0 01-2.28-2.28v-4.64z" transform="rotate(16.22 142.47 68.734)"/><path class="cls-1" d="M175.88 79.33l-15.09-4.39a6.27 6.27 0 008-5.31c.7-6.39 1.18-12.14 1.46-17.34a39.49 39.49 0 012.82 3c3.41 4 8.26 11.28 8 19.86a4.25 4.25 0 01-5.19 4.18zM120.27 63.15l-15.08-4.38a4.25 4.25 0 01-2.12-6.31c4.39-7.37 12.36-10.9 17.4-12.46a37.39 37.39 0 014-1c-2.54 4.53-5.23 9.64-8 15.41a6.24 6.24 0 003.8 8.74z" transform="translate(0 -.56)"/><path d="M160.79 74.94l-40.52-11.79a6.26 6.26 0 01-3.88-8.76c2.83-5.76 5.52-10.87 8.06-15.41C141.7 8.28 152.58 4.09 157 4a4.65 4.65 0 012.31.41 4.58 4.58 0 012.16.89 7 7 0 01.88.68 9.11 9.11 0 01.78.76c3.75 4.06 8.71 15.17 7.06 45.57-.28 5.2-.76 11-1.46 17.34a6.27 6.27 0 01-7.94 5.29z" transform="translate(0 -.56)" fill="#eddaec"/><path class="cls-2" d="M120.27 63.15l-9.12-2.65a6 6 0 01.46-4.29c3.07-6 6-11.37 8.79-16.1l.07-.11a37.39 37.39 0 014-1c-2.54 4.53-5.23 9.64-8 15.41a6.24 6.24 0 003.8 8.74zM169.92 77.59l-9.13-2.65a6.27 6.27 0 008-5.31c.7-6.39 1.18-12.14 1.46-17.34a39.49 39.49 0 012.82 3 .53.53 0 010 .13c-.18 5.5-.57 11.58-1.21 18.32a6 6 0 01-1.94 3.85z" transform="translate(0 -.56)"/><circle cx="149.85" cy="36.47" r="9.65" fill="#ce8bbb"/><path class="cls-5" d="M160.79 74.94l-13.15-3.83C164.49 35.7 157 4 157 4a4.65 4.65 0 012.31.41 4.58 4.58 0 012.16.89 9.62 9.62 0 011.67 1.45c3.75 4.06 8.71 15.17 7.06 45.57-.28 5.2-.76 11-1.46 17.34a6.27 6.27 0 01-7.95 5.28z" transform="translate(0 -.56)"/><path class="cls-5" d="M160.79 74.94l-6.35-1.85C170 61.5 162.48 6.64 162.39 6a9.11 9.11 0 01.78.76c3.75 4.06 8.71 15.17 7.06 45.57-.28 5.2-.76 11-1.46 17.34a6.27 6.27 0 01-7.98 5.27z" transform="translate(0 -.56)"/><path d="M157.13 39.15a7.59 7.59 0 01-14.48.29 7.48 7.48 0 01-.39-2.5 7.59 7.59 0 0114-3.93 7.67 7.67 0 01.85 6.14z" transform="translate(0 -.56)" fill="#ab4592"/><path d="M210.66 84.56a107 107 0 01-17 34.1 109.43 109.43 0 01-15.38 16.66A107.51 107.51 0 0115 109.44a108.59 108.59 0 01-5.28-10A106.9 106.9 0 010 57.77c94.1 81.77 131.39 15.82 131.39 15.82l2.47.72 6.67 2 2.62.76c16.35 54.44 67.51 7.49 67.51 7.49z" transform="translate(0 -.56)" fill="#df6ea8"/><path class="cls-8" d="M193.68 118.66a109.43 109.43 0 01-15.38 16.66 110.17 110.17 0 01-12.71 9.59 107.57 107.57 0 01-115.79.32 107.94 107.94 0 01-40-45.81c94.57 56.18 124.1-25.11 124.1-25.11l3.28 1 1.93.56 1.46.43c12.56 67.37 52.57 42.7 53.11 42.36z" transform="translate(0 -.56)"/><path d="M165.58 144.91a107.57 107.57 0 01-115.79.32c67.5 1.9 87.35-70 87.35-70l1.93.56c-14.53 74.03 25.99 69.21 26.51 69.12z" transform="translate(0 -.56)" fill="#d74692"/><path class="cls-8" d="M272.76 78.74s-7.7 7.5-16.2 7.5c-9.7 0-15.59-5.7-15.59-15.7 0-11.8 8.89-16.5 24.09-16.5h7v-5.5c0-5.09-2.7-7.29-7.7-7.29a25.7 25.7 0 00-8.8 1.5l-1.5 6.25h-9l-.71-14.79s12.1-4 21.7-4c15.2 0 21 5.3 21 19.79v24.7l7.5 1.8v8l-20 .7zM261.36 75c5.3 0 10.7-5.8 10.7-5.8v-6.7h-5.7c-7.8 0-10.9 2-10.9 6.5 0 3.84 2.1 6 5.9 6zM299.06 31.75l21.3-.5.9 5.6s6.8-6.6 14.8-6.6c13.9 0 20.8 10.3 20.8 26.49 0 18.5-8.8 29.5-26.3 29.5a38.8 38.8 0 01-8.5-1v12.7l9.5 2.3v8h-32.3v-8l7.8-2.3V42.25l-8-2.5zm30.8 43c8.6 0 11.5-6 11.5-16.2s-2.7-16.29-10-16.29a10.81 10.81 0 00-9.3 5.5v25.48a18.59 18.59 0 007.8 1.5zM416.55 57.24c0 18-10.5 29-26.7 29s-25.5-8.5-25.5-27.5c0-18 10.7-28.49 27-28.49s25.2 9.8 25.2 26.99zm-36.7 1c0 11 3.2 16 10.5 16s10.7-4.5 10.7-16.5c0-10.2-3-15.49-10.2-15.49s-11 4-11 15.99zM445.64 74.74l9 2.5v8h-32.09v-8l8-2.5V18.55l-8-2v-8l23.09-.8zM480.74 74.74l9 2.5v8h-32.1v-8l8-2.5V18.55l-8-2v-8l23.1-.8zM545.94 57.24c0 18-10.5 29-26.7 29s-25.5-8.5-25.5-27.5c0-18 10.7-28.49 27-28.49s25.2 9.8 25.2 26.99zm-36.7 1c0 11 3.2 16 10.5 16s10.7-4.5 10.7-16.5c0-10.2-3-15.49-10.2-15.49s-11 4-11 15.99z" transform="translate(0 -.56)"/><path class="cls-10" d="M249.66 134.11v3.36h-10.94v-18.15h4.21v14.79zM255.7 121a2 2 0 01-.19.86 2.11 2.11 0 01-.51.71 2.49 2.49 0 01-.75.49 2.36 2.36 0 01-.92.18 2.16 2.16 0 01-.88-.18 2.29 2.29 0 01-.73-.49 2.23 2.23 0 01-.5-.71 2.11 2.11 0 01-.22-.86 2.21 2.21 0 01.18-.89 2.39 2.39 0 01.5-.72 2.29 2.29 0 01.73-.49 2.34 2.34 0 01.88-.17 2.55 2.55 0 01.92.17 2.49 2.49 0 01.75.49 2.25 2.25 0 01.51.72 2.06 2.06 0 01.23.89zm-.4 3.53v12.92h-3.86v-12.9zM261.86 125.92a6.71 6.71 0 011.64-1.14 4.64 4.64 0 012-.43 4.29 4.29 0 013.52 1.73 5.93 5.93 0 011 2 9.22 9.22 0 01.34 2.61 9.51 9.51 0 01-.4 2.86 6.66 6.66 0 01-1.12 2.19 5.14 5.14 0 01-1.74 1.42 4.88 4.88 0 01-2.23.51 4.77 4.77 0 01-1-.11 3.66 3.66 0 01-.84-.32 3.9 3.9 0 01-.71-.49 7.33 7.33 0 01-.61-.63l-.14.65a.89.89 0 01-.32.55 1.07 1.07 0 01-.6.15H258v-18.65h3.86zm0 8a2.59 2.59 0 00.95.67 2.9 2.9 0 001 .2 2.37 2.37 0 001-.21 1.86 1.86 0 00.79-.67 3.51 3.51 0 00.52-1.23 8.35 8.35 0 00.19-1.89 7.74 7.74 0 00-.15-1.65 3.14 3.14 0 00-.42-1.11 1.73 1.73 0 00-.7-.62 2.18 2.18 0 00-.95-.19 2.34 2.34 0 00-1.23.31 4.27 4.27 0 00-1 .91zM275.93 126.55a5.3 5.3 0 011.37-1.65 2.86 2.86 0 011.79-.6 2.28 2.28 0 011.42.42l-.25 2.84a.58.58 0 01-.21.37.63.63 0 01-.39.1h-1.28a1.93 1.93 0 00-1.35.45 3.58 3.58 0 00-.86 1.24v7.85h-3.86v-13.02h2.3a2 2 0 01.47 0 1 1 0 01.33.16.65.65 0 01.2.28q.06.18.12.42zM281.4 126.35a8 8 0 012.6-1.54 9 9 0 013.06-.51 5.66 5.66 0 012.11.38 4.57 4.57 0 011.59 1.06 4.73 4.73 0 011 1.62 5.82 5.82 0 01.35 2v8.07h-1.77a1.81 1.81 0 01-.83-.15 1.17 1.17 0 01-.47-.62l-.27-.71c-.33.27-.64.51-.94.72a6.07 6.07 0 01-.92.53 4.85 4.85 0 01-1 .32 6.47 6.47 0 01-1.21.11 5.33 5.33 0 01-1.6-.23 3.27 3.27 0 01-1.23-.68 2.94 2.94 0 01-.78-1.11 4.11 4.11 0 01-.27-1.54 3.13 3.13 0 01.35-1.42 3.47 3.47 0 011.2-1.3 7.52 7.52 0 012.32-1 15.16 15.16 0 013.67-.45v-.55a2.38 2.38 0 00-.46-1.64 1.71 1.71 0 00-1.33-.5 3.48 3.48 0 00-1.12.15 5.72 5.72 0 00-.78.33c-.23.13-.45.24-.66.34a1.87 1.87 0 01-.78.15 1.13 1.13 0 01-.67-.2 1.83 1.83 0 01-.45-.47zm7 5.86a13.71 13.71 0 00-1.9.2 4.54 4.54 0 00-1.18.38 1.45 1.45 0 00-.61.51 1.23 1.23 0 00-.17.62 1.07 1.07 0 00.37.93 1.73 1.73 0 001.05.27 3 3 0 001.31-.27 3.88 3.88 0 001.13-.84zM298.19 126.55a5.46 5.46 0 011.38-1.65 2.86 2.86 0 011.79-.6 2.28 2.28 0 011.42.42l-.25 2.84a.58.58 0 01-.21.37.63.63 0 01-.39.1h-1.28a1.93 1.93 0 00-1.35.45 3.58 3.58 0 00-.86 1.24v7.85h-3.86v-13.02h2.29a2.14 2.14 0 01.48 0 1 1 0 01.33.16.75.75 0 01.2.28 3.16 3.16 0 01.11.42z" transform="translate(0 -.56)"/><path class="cls-10" d="M316.35 124.55l-6.9 16.27a1.37 1.37 0 01-.42.57 1.39 1.39 0 01-.8.18h-2.89l2.49-5.23-5.15-11.79h3.41a1.07 1.07 0 01.69.2 1.29 1.29 0 01.36.48l2.11 5.56a12.26 12.26 0 01.49 1.56l.27-.8c.09-.26.19-.52.29-.78l1.92-5.54a1 1 0 01.4-.48 1.09 1.09 0 01.62-.2zM343.47 119.32v18.15h-3.72V127v-.78c0-.28 0-.57.07-.86l-4.82 9.36a1.61 1.61 0 01-.6.66 1.68 1.68 0 01-.87.22H333a1.71 1.71 0 01-.87-.22 1.61 1.61 0 01-.6-.66l-4.82-9.36c0 .3 0 .6.06.88s0 .55 0 .79v10.44h-3.71v-18.15h3.69a1.06 1.06 0 01.37.07 1 1 0 01.29.19 1.4 1.4 0 01.25.37l4.67 9.2q.26.48.48 1c.16.34.3.69.45 1.05.14-.37.28-.73.44-1.08s.32-.68.49-1l4.66-9.17a1.69 1.69 0 01.25-.37 1 1 0 01.3-.19 1 1 0 01.36-.07h.48zM346 126.35a7.92 7.92 0 012.6-1.54 9 9 0 013.05-.51 5.72 5.72 0 012.12.38 4.77 4.77 0 011.59 1.06 4.56 4.56 0 011 1.62 5.6 5.6 0 01.35 2v8.07h-1.77a1.84 1.84 0 01-.83-.15 1.16 1.16 0 01-.46-.62l-.28-.71q-.48.4-.93.72a6.17 6.17 0 01-.93.53 4.85 4.85 0 01-1 .32 6.29 6.29 0 01-1.2.11 5.4 5.4 0 01-1.61-.23 3.34 3.34 0 01-1.23-.68 3 3 0 01-.77-1.11 3.92 3.92 0 01-.28-1.54 3.27 3.27 0 01.35-1.42 3.5 3.5 0 011.21-1.3 7.31 7.31 0 012.32-1 15.09 15.09 0 013.67-.45v-.55a2.38 2.38 0 00-.47-1.64 1.69 1.69 0 00-1.32-.5 3.48 3.48 0 00-1.12.15 5.23 5.23 0 00-.78.33c-.23.13-.45.24-.67.34a1.82 1.82 0 01-.77.15 1.11 1.11 0 01-.67-.2 1.54 1.54 0 01-.45-.47zm6.95 5.86a13.87 13.87 0 00-1.91.2 4.67 4.67 0 00-1.18.38 1.42 1.42 0 00-.6.51 1.14 1.14 0 00-.17.62 1.09 1.09 0 00.36.93 1.74 1.74 0 001.06.27 3 3 0 001.31-.27 3.88 3.88 0 001.13-.84zM362.71 126c.25-.23.51-.45.77-.65a4.3 4.3 0 01.85-.5 5.06 5.06 0 012.14-.45 4.64 4.64 0 011.88.37 4 4 0 011.37 1 4.37 4.37 0 01.85 1.56 6.49 6.49 0 01.29 2v8.21H367v-8.21a2.24 2.24 0 00-.43-1.47 1.55 1.55 0 00-1.29-.53 2.75 2.75 0 00-1.18.26 5.14 5.14 0 00-1.08.73v9.22h-3.86v-12.99h2.39a.9.9 0 01.94.65zM373.06 126.35a7.82 7.82 0 012.6-1.54 9 9 0 013-.51 5.63 5.63 0 012.11.38 4.71 4.71 0 011.6 1.06 4.56 4.56 0 011 1.62 5.82 5.82 0 01.35 2v8.07H382a1.84 1.84 0 01-.83-.15 1.16 1.16 0 01-.46-.62l-.28-.71q-.48.4-.93.72a6.17 6.17 0 01-.93.53 4.85 4.85 0 01-1 .32 6.29 6.29 0 01-1.2.11 5.4 5.4 0 01-1.61-.23 3.34 3.34 0 01-1.23-.68 3.18 3.18 0 01-.78-1.11 4.11 4.11 0 01-.27-1.54 3.27 3.27 0 01.35-1.42 3.42 3.42 0 011.21-1.3 7.35 7.35 0 012.31-1A15.25 15.25 0 01380 130v-.55a2.38 2.38 0 00-.47-1.64 1.69 1.69 0 00-1.32-.5 3.59 3.59 0 00-1.13.15 5.09 5.09 0 00-.77.33c-.23.13-.45.24-.67.34a1.82 1.82 0 01-.77.15 1.16 1.16 0 01-.68-.2 1.64 1.64 0 01-.44-.47zm6.95 5.86a13.87 13.87 0 00-1.91.2 4.67 4.67 0 00-1.18.38 1.42 1.42 0 00-.6.51 1.14 1.14 0 00-.17.62 1.09 1.09 0 00.36.93 1.74 1.74 0 001.06.27 3 3 0 001.31-.27A3.88 3.88 0 00380 134zM398 125v1.41a.69.69 0 01-.18.51 1.28 1.28 0 01-.62.29l-.93.21c0 .18.08.37.11.56a3.83 3.83 0 01.05.6 3.69 3.69 0 01-.41 1.74 3.89 3.89 0 01-1.11 1.31 5.09 5.09 0 01-1.66.84 7.15 7.15 0 01-2 .29 5.72 5.72 0 01-.59 0 5 5 0 01-.56-.06.71.71 0 00-.42.58.48.48 0 00.35.47 3.63 3.63 0 00.92.2c.38 0 .81.06 1.3.07s1 0 1.49.09a10.73 10.73 0 011.49.23 4.27 4.27 0 011.3.52 2.68 2.68 0 01.92 1 3.05 3.05 0 01.35 1.54 3.61 3.61 0 01-.43 1.7 4.33 4.33 0 01-1.24 1.48 6.31 6.31 0 01-2 1 8.54 8.54 0 01-2.74.4 10.53 10.53 0 01-2.62-.29 6.23 6.23 0 01-1.83-.75 3.18 3.18 0 01-1.08-1.08 2.56 2.56 0 01-.35-1.27 2.11 2.11 0 01.5-1.43 3.5 3.5 0 011.39-.93 2 2 0 01-1-1.89 2.21 2.21 0 01.1-.6 2.68 2.68 0 01.32-.63 3.59 3.59 0 01.54-.57 3.49 3.49 0 01.64-.54 4.36 4.36 0 01-1.59-1.41 3.86 3.86 0 01-.17-3.8 4 4 0 011.12-1.32 5.46 5.46 0 011.69-.84 7.47 7.47 0 012.11-.29 6.62 6.62 0 012.91.62zm-3.81 13a.68.68 0 00-.42-.66 3.34 3.34 0 00-1.07-.3c-.44 0-.93-.09-1.47-.1s-1.09 0-1.63-.1a2.65 2.65 0 00-.59.56 1.12 1.12 0 00-.23.69 1.06 1.06 0 00.12.5 1 1 0 00.41.38 2.66 2.66 0 00.81.26 9.29 9.29 0 002.65 0 2.66 2.66 0 00.85-.27 1.05 1.05 0 00.44-.42 1.19 1.19 0 00.09-.6zm-3-7.61a1.75 1.75 0 001.38-.48 1.77 1.77 0 00.43-1.24 1.69 1.69 0 00-.43-1.23 1.82 1.82 0 00-1.38-.45 1.84 1.84 0 00-1.39.45 1.69 1.69 0 00-.43 1.23 2.17 2.17 0 00.1.69 1.36 1.36 0 00.33.54 1.5 1.5 0 00.57.36 2.24 2.24 0 00.79.07zM402.5 131.7a3.64 3.64 0 001 2.35 2.89 2.89 0 002.05.73 3.61 3.61 0 001.16-.16 7.13 7.13 0 00.87-.36l.69-.36a1.45 1.45 0 01.67-.17.81.81 0 01.7.34l1.12 1.38a5.83 5.83 0 01-1.29 1.12 7 7 0 01-1.42.67 8.56 8.56 0 01-1.46.34 11.29 11.29 0 01-1.39.09 7.33 7.33 0 01-2.54-.44 5.86 5.86 0 01-2.08-1.32 6 6 0 01-1.41-2.16 8 8 0 01-.52-3 6.91 6.91 0 01.44-2.45 6.17 6.17 0 011.27-2 6.1 6.1 0 012-1.38 6.44 6.44 0 012.66-.52 6.82 6.82 0 012.35.4 5 5 0 013 3 6.79 6.79 0 01.43 2.5 4.61 4.61 0 010 .71 1.21 1.21 0 01-.13.44.58.58 0 01-.27.22 1.31 1.31 0 01-.43.06zm4.86-2.24a3.37 3.37 0 00-.12-.9 2.22 2.22 0 00-.38-.77 2 2 0 00-.71-.56 2.41 2.41 0 00-1.06-.21 2.32 2.32 0 00-1.72.63 3.28 3.28 0 00-.82 1.81zM412.75 137.47v-12.92h2.39a.91.91 0 01.95.65l.21.7a6.57 6.57 0 01.68-.62 4.16 4.16 0 01.75-.48 4 4 0 011.9-.45 3 3 0 011.93.61 3.8 3.8 0 011.17 1.61 3.66 3.66 0 01.79-1 4.17 4.17 0 011-.68 4.52 4.52 0 011.14-.39 6.3 6.3 0 011.21-.13 5.4 5.4 0 012 .33 3.65 3.65 0 011.44 1 4.13 4.13 0 01.88 1.55 6.63 6.63 0 01.3 2.07v8.21h-3.89v-8.21c0-1.33-.57-2-1.72-2a1.77 1.77 0 00-1.3.51 2 2 0 00-.52 1.49v8.21h-3.86v-8.21a2.18 2.18 0 00-.43-1.55 1.73 1.73 0 00-1.29-.45 2.25 2.25 0 00-1 .23 3.72 3.72 0 00-.88.64v9.34zM437.13 131.7a3.64 3.64 0 001 2.35 2.92 2.92 0 002.06.73 3.59 3.59 0 001.15-.16 6 6 0 00.87-.36c.25-.14.49-.26.7-.36a1.41 1.41 0 01.66-.17.81.81 0 01.7.34l1.12 1.38a5.83 5.83 0 01-1.29 1.12 6.79 6.79 0 01-1.42.67 8.45 8.45 0 01-1.45.34 11.42 11.42 0 01-1.39.09 7.34 7.34 0 01-2.55-.44 6 6 0 01-2.08-1.32 6.33 6.33 0 01-1.41-2.16 8.24 8.24 0 01-.51-3 6.69 6.69 0 01.44-2.45 6 6 0 013.27-3.41 6.48 6.48 0 012.66-.52 6.77 6.77 0 012.35.4 5.25 5.25 0 011.83 1.16 5.42 5.42 0 011.2 1.86 7 7 0 01.43 2.5 6.37 6.37 0 010 .71 1.2 1.2 0 01-.14.44.49.49 0 01-.27.22 1.27 1.27 0 01-.43.06zm4.85-2.24a3.82 3.82 0 00-.11-.9 2.08 2.08 0 00-.39-.77 2 2 0 00-.7-.56 2.44 2.44 0 00-1.06-.21 2.3 2.3 0 00-1.72.63 3.22 3.22 0 00-.82 1.81zM450.94 126a9.45 9.45 0 01.77-.65 4.3 4.3 0 01.85-.5 5 5 0 011-.33 5.14 5.14 0 011.15-.12 4.55 4.55 0 011.87.37 4 4 0 011.38 1 4.53 4.53 0 01.85 1.56 6.49 6.49 0 01.28 2v8.21h-3.86v-8.21a2.24 2.24 0 00-.43-1.47 1.55 1.55 0 00-1.29-.53 2.75 2.75 0 00-1.18.26 5.14 5.14 0 00-1.08.73v9.22h-3.86v-12.99h2.39a.9.9 0 01.94.65zM466 137.67a4.51 4.51 0 01-1.62-.27 3.13 3.13 0 01-1.92-2 4.71 4.71 0 01-.24-1.55v-6.68h-1.1a.72.72 0 01-.51-.19.74.74 0 01-.21-.57V125l2.05-.4.76-3.15a.76.76 0 01.85-.59h2v3.77h3.2v2.64h-3.2v6.41a1.16 1.16 0 00.22.74.71.71 0 00.62.3 1.25 1.25 0 00.36 0 1.45 1.45 0 00.25-.1l.2-.1a.65.65 0 01.21 0 .47.47 0 01.28.08.84.84 0 01.22.26l1.17 1.83a5.41 5.41 0 01-1.68.84 6.53 6.53 0 01-1.91.14zM487.19 123a1.47 1.47 0 01-.39.45.88.88 0 01-.53.15 1.28 1.28 0 01-.61-.18l-.75-.41a6.46 6.46 0 00-1-.4 3.88 3.88 0 00-1.23-.18 2.62 2.62 0 00-1.76.5 1.74 1.74 0 00-.58 1.36 1.26 1.26 0 00.35.91 3 3 0 00.92.63 11.76 11.76 0 001.29.48c.49.14 1 .3 1.49.48a13.85 13.85 0 011.49.63 5 5 0 011.3.92 4.43 4.43 0 01.91 1.37 4.86 4.86 0 01.35 1.93A6.35 6.35 0 01488 134a5.49 5.49 0 01-1.26 1.91 5.86 5.86 0 01-2 1.28 7.68 7.68 0 01-2.76.47 8.62 8.62 0 01-1.73-.18 10.1 10.1 0 01-3.24-1.24 7 7 0 01-1.26-1l1.25-2a1.35 1.35 0 01.39-.36 1.08 1.08 0 01.53-.14 1.38 1.38 0 01.75.24l.86.52a6.62 6.62 0 001.1.52 4.12 4.12 0 001.47.24 2.81 2.81 0 001.78-.5 1.91 1.91 0 00.64-1.6 1.54 1.54 0 00-.35-1 2.83 2.83 0 00-.92-.66 8.23 8.23 0 00-1.28-.46c-.49-.13-1-.28-1.49-.44a10.43 10.43 0 01-1.48-.6 4.93 4.93 0 01-1.29-.93 4.32 4.32 0 01-.91-1.45 5.55 5.55 0 01-.35-2.13 5.12 5.12 0 011.62-3.73 6 6 0 011.95-1.21 7.3 7.3 0 012.66-.46 10.84 10.84 0 011.62.13 8.67 8.67 0 011.5.39 8.07 8.07 0 011.33.61 6.62 6.62 0 011.1.8zM502.18 124.55l-6.9 16.27a1.38 1.38 0 01-.43.57 1.35 1.35 0 01-.79.18h-2.89l2.49-5.23-5.16-11.79h3.42a1.11 1.11 0 01.69.2 1.17 1.17 0 01.35.48l2.12 5.56a10.8 10.8 0 01.48 1.56c.1-.27.19-.53.28-.8s.18-.52.28-.78l1.92-5.54a1.15 1.15 0 011-.68zM511.22 127.38a1.06 1.06 0 01-.32.34.88.88 0 01-.43.1 1.32 1.32 0 01-.54-.12l-.6-.26a7.24 7.24 0 00-.71-.25 3.18 3.18 0 00-.91-.12 1.91 1.91 0 00-1.13.28.91.91 0 00-.39.78.79.79 0 00.25.6 2.55 2.55 0 00.68.41 9.44 9.44 0 001 .35c.36.1.72.22 1.1.36a10.46 10.46 0 011.09.46 4.09 4.09 0 011 .66 2.89 2.89 0 01.68 1 3.2 3.2 0 01.26 1.34 4.47 4.47 0 01-.35 1.77 3.75 3.75 0 01-1 1.4 5 5 0 01-1.71.91 7.81 7.81 0 01-2.33.32 6.56 6.56 0 01-1.32-.13 8.89 8.89 0 01-1.28-.33 6.57 6.57 0 01-1.14-.51 4.47 4.47 0 01-.9-.63l.9-1.42a1.29 1.29 0 01.38-.39 1.14 1.14 0 01.59-.14 1.23 1.23 0 01.61.15l.57.32a5 5 0 00.73.33 3.18 3.18 0 001.06.15 2.8 2.8 0 00.76-.1 1.26 1.26 0 00.49-.25 1 1 0 00.28-.36 1 1 0 00.09-.42.83.83 0 00-.27-.63 2.15 2.15 0 00-.68-.43 9.79 9.79 0 00-1-.34c-.36-.1-.73-.22-1.1-.35a8.15 8.15 0 01-1.1-.48 4 4 0 01-1-.71 3.34 3.34 0 01-.68-1.05 3.82 3.82 0 01-.26-1.51 3.91 3.91 0 01.31-1.56 3.58 3.58 0 011-1.3 4.53 4.53 0 011.59-.9 6.91 6.91 0 012.24-.33 7.36 7.36 0 011.35.13 6.52 6.52 0 011.23.35 5.73 5.73 0 011.05.53 5 5 0 01.83.66zM518.73 137.67a4.57 4.57 0 01-1.63-.27 3.15 3.15 0 01-1.91-2 4.71 4.71 0 01-.25-1.55v-6.68h-1.09a.72.72 0 01-.51-.19.74.74 0 01-.21-.57V125l2-.4.76-3.15a.76.76 0 01.85-.59h2v3.77H522v2.64h-3.2v6.41a1.23 1.23 0 00.22.74.74.74 0 00.63.3 1.25 1.25 0 00.36 0 1.45 1.45 0 00.25-.1l.19-.1a.78.78 0 01.22 0 .47.47 0 01.28.08 1 1 0 01.22.26l1.17 1.83a5.52 5.52 0 01-1.68.84 6.58 6.58 0 01-1.93.14zM526.73 131.7a3.64 3.64 0 001 2.35 2.92 2.92 0 002.06.73 3.59 3.59 0 001.15-.16 6 6 0 00.87-.36c.25-.14.48-.26.7-.36a1.41 1.41 0 01.66-.17.81.81 0 01.7.34l1.12 1.38a5.83 5.83 0 01-1.29 1.12 6.79 6.79 0 01-1.42.67 8.45 8.45 0 01-1.45.34 11.42 11.42 0 01-1.39.09 7.34 7.34 0 01-2.55-.44 6 6 0 01-2.08-1.32 6.33 6.33 0 01-1.41-2.16 8.24 8.24 0 01-.51-3 6.69 6.69 0 01.44-2.45 6 6 0 013.27-3.41 6.48 6.48 0 012.66-.52 6.77 6.77 0 012.35.4 5.25 5.25 0 011.83 1.16 5.42 5.42 0 011.2 1.86 7 7 0 01.43 2.5 6.37 6.37 0 010 .71 1.2 1.2 0 01-.14.44.49.49 0 01-.27.22 1.27 1.27 0 01-.43.06zm4.85-2.24a3.82 3.82 0 00-.11-.9 2.08 2.08 0 00-.39-.77 2 2 0 00-.7-.56 2.44 2.44 0 00-1.06-.21 2.3 2.3 0 00-1.72.63 3.22 3.22 0 00-.82 1.81zM537 137.47v-12.92h2.39a.91.91 0 01.94.65l.22.7a6.48 6.48 0 01.67-.62 4.16 4.16 0 01.75-.48 4.12 4.12 0 01.87-.33 4.22 4.22 0 011-.12 3.06 3.06 0 011.94.61 3.7 3.7 0 011.16 1.61 3.86 3.86 0 01.79-1 4.37 4.37 0 011-.68 4.59 4.59 0 011.15-.39 6.12 6.12 0 011.2-.13 5.5 5.5 0 012 .33 3.8 3.8 0 011.44 1 4.12 4.12 0 01.87 1.55 6.63 6.63 0 01.3 2.07v8.21h-3.86v-8.21c0-1.33-.57-2-1.72-2a1.79 1.79 0 00-1.3.51 2 2 0 00-.51 1.49v8.21h-3.87v-8.21a2.18 2.18 0 00-.43-1.55 1.71 1.71 0 00-1.28-.45 2.25 2.25 0 00-1 .23 3.36 3.36 0 00-.88.64v9.34z" transform="translate(0 -.56)"/></g></g></svg>